<svg width="10" height="10" viewBox="0 0 10 10" fill="none" xmlns="http://www.w3.org/2000/svg">
<path d="M9.87496 8.7002C9.95384 8.77844 9.99821 8.88494 9.99821 8.99604C9.99821 9.10714 9.95384 9.21364 9.87496 9.29187L9.29163 9.8752C9.21339 9.95408 9.10689 9.99845 8.99579 9.99845C8.88469 9.99845 8.7782 9.95408 8.69996 9.8752L4.99996 6.1752L1.29996 9.8752C1.22172 9.95408 1.11522 9.99845 1.00413 9.99845C0.893026 9.99845 0.786528 9.95408 0.708292 9.8752L0.124958 9.29187C0.046078 9.21364 0.00170898 9.10714 0.00170898 8.99604C0.00170898 8.88494 0.046078 8.77844 0.124958 8.7002L3.82496 5.0002L0.124958 1.3002C0.046078 1.22197 0.00170898 1.11547 0.00170898 1.00437C0.00170898 0.89327 0.046078 0.786772 0.124958 0.708536L0.708292 0.125202C0.786528 0.0463222 0.893026 0.00195313 1.00413 0.00195313C1.11522 0.00195313 1.22172 0.0463222 1.29996 0.125202L4.99996 3.8252L8.69996 0.125202C8.7782 0.0463222 8.88469 0.00195312 8.99579 0.00195312C9.10689 0.00195312 9.21339 0.0463222 9.29163 0.125202L9.87496 0.708536C9.95384 0.786772 9.99821 0.89327 9.99821 1.00437C9.99821 1.11547 9.95384 1.22197 9.87496 1.3002L6.17496 5.0002L9.87496 8.7002Z" fill="white"/>
</svg>
