<svg width="80" height="80" viewBox="0 0 80 80" fill="none" xmlns="http://www.w3.org/2000/svg">
<path d="M47.9921 32.0073L32.0088 47.9906" stroke="white" stroke-width="4" stroke-linecap="round" stroke-linejoin="round"/>
<path d="M47.9967 48L39.9983 40L32 32" stroke="white" stroke-width="4" stroke-linecap="round" stroke-linejoin="round"/>
<circle cx="40" cy="40" r="29" fill="#EB5757"/>
<circle opacity="0.2" cx="40" cy="40" r="40" fill="#EB5757"/>
<path fill-rule="evenodd" clip-rule="evenodd" d="M50.3589 31.5532C50.8452 31.5532 51.25 31.957 51.25 32.4707V32.9457C51.25 33.447 50.8452 33.8632 50.3589 33.8632H29.6423C29.1548 33.8632 28.75 33.447 28.75 32.9457V32.4707C28.75 31.957 29.1548 31.5532 29.6423 31.5532H33.287C34.0273 31.5532 34.6716 31.027 34.8382 30.2845L35.029 29.432C35.3257 28.2708 36.3019 27.4995 37.4191 27.4995H42.5809C43.686 27.4995 44.6731 28.2708 44.9588 29.3707L45.163 30.2832C45.3284 31.027 45.9727 31.5532 46.7143 31.5532H50.3589ZM48.5073 48.917C48.8878 45.3708 49.554 36.9459 49.554 36.8609C49.5783 36.6034 49.4944 36.3597 49.3279 36.1634C49.1492 35.9797 48.923 35.8709 48.6738 35.8709H31.3357C31.0852 35.8709 30.8469 35.9797 30.6816 36.1634C30.5138 36.3597 30.4312 36.6034 30.4433 36.8609C30.4456 36.8765 30.4695 37.1733 30.5094 37.6694C30.687 39.8735 31.1815 46.0122 31.501 48.917C31.7271 51.057 33.1312 52.402 35.1651 52.4508C36.7345 52.487 38.3514 52.4995 40.0047 52.4995C41.562 52.4995 43.1437 52.487 44.7617 52.4508C46.8661 52.4145 48.269 51.0933 48.5073 48.917Z" fill="white"/>
</svg>
