<svg width="28" height="28" viewBox="0 0 28 28" fill="none" xmlns="http://www.w3.org/2000/svg">
<path fill-rule="evenodd" clip-rule="evenodd" d="M27.3332 14.0011C27.3332 21.3598 21.3599 27.3345 13.9999 27.3345C6.62653 27.3345 0.666527 21.3598 0.666528 14.0011C0.666529 6.6398 6.62653 0.667807 13.9999 0.667807C21.3599 0.667808 27.3332 6.63981 27.3332 14.0011ZM15.1732 19.0547C15.1732 19.6934 14.6399 20.228 13.9999 20.228C13.3599 20.228 12.8399 19.6934 12.8399 19.0547L12.8399 13.1614C12.8399 12.52 13.3599 12.0014 13.9999 12.0014C14.6399 12.0014 15.1732 12.52 15.1732 13.1614L15.1732 19.0547ZM13.9865 7.75993C14.6399 7.75993 15.1599 8.29326 15.1599 8.93326C15.1599 9.57326 14.6399 10.0933 13.9999 10.0933C13.3465 10.0933 12.8265 9.57326 12.8265 8.93326C12.8265 8.29326 13.3465 7.75993 13.9865 7.75993Z" fill="#D3D3D3"/>
</svg>
