<?xml version="1.0" encoding="UTF-8" standalone="no"?> <svg width="64" height="64" viewBox="0 0 64 64" fill="none" xmlns="http://www.w3.org/2000/svg">
<path d="M61.19 31.0901C60.66 30.4001 48.02 14.0901 32 14.0901C15.98 14.0901 3.34001 30.4001 2.81001 31.0901C2.61051 31.3515 2.50244 31.6712 2.50244 32.0001C2.50244 32.3289 2.61051 32.6487 2.81001 32.9101C3.34001 33.6001 15.98 49.9101 32 49.9101C48.02 49.9101 60.66 33.5801 61.19 32.9101C61.3895 32.6487 61.4976 32.3289 61.4976 32.0001C61.4976 31.6712 61.3895 31.3515 61.19 31.0901V31.0901ZM32 46.9301C19.53 46.9301 8.80001 35.3701 5.94001 32.0001C8.80001 28.6301 19.53 17.0701 32 17.0701C44.47 17.0701 55.2 28.6301 58.06 32.0001C55.2 35.3701 44.47 46.9301 32 46.9301Z" fill="black"/>
<path d="M32 43.8601C38.5501 43.8601 43.86 38.5502 43.86 32.0001C43.86 25.45 38.5501 20.1401 32 20.1401C25.4499 20.1401 20.14 25.45 20.14 32.0001C20.14 38.5502 25.4499 43.8601 32 43.8601Z" fill="black"/>
</svg>
