<svg width="32" height="32" viewBox="0 0 32 32" fill="none" xmlns="http://www.w3.org/2000/svg">
<circle cx="16" cy="16" r="16" fill="#13D5FE"/>
<path d="M21.6 15.6004V16.4004C21.6 16.6213 21.4209 16.8004 21.2 16.8004H16.8V21.2004C16.8 21.4213 16.6209 21.6004 16.4 21.6004H15.6C15.3791 21.6004 15.2 21.4213 15.2 21.2004V16.8004H10.8C10.5791 16.8004 10.4 16.6213 10.4 16.4004V15.6004C10.4 15.3795 10.5791 15.2004 10.8 15.2004H15.2V10.8004C15.2 10.5795 15.3791 10.4004 15.6 10.4004H16.4C16.6209 10.4004 16.8 10.5795 16.8 10.8004V15.2004H21.2C21.4209 15.2004 21.6 15.3795 21.6 15.6004Z" fill="white"/>
</svg>
