<?xml version="1.0" encoding="UTF-8" standalone="no"?> <svg id="Layer_1" data-name="Layer 1" xmlns="http://www.w3.org/2000/svg" viewBox="0 0 128 128"><defs><style>.cls-1{fill:#2d3e50;}.cls-2{fill:#2e79bd;}</style></defs><title>n</title><path class="cls-1" d="M121.43364,87.22452c-14.32107,9.35219-47.00571,27.7976-47.00571,27.7976a.77352.77352,0,0,0-.07192.04109c-4.9252,2.9356-10.09145,3.18119-15.2598,2.26354-.53312-.09466-33.11551-4.08073-37.94088-4.6688l-.13356-3.00325V73.66709c2.58205-.23629,7.45847-.43489,7.99954-.46915,13.89642-.89721,27.29289,2.30124,40.82634,4.96205a6.09245,6.09245,0,0,1,4.91411,5.97908,5.6098,5.6098,0,0,1-.04452.72255,6.0881,6.0881,0,0,1-6.0476,5.36956H44.42792a1.92668,1.92668,0,0,0-1.98277,1.86631,1.84859,1.84859,0,0,0,.8938,1.56155,1.534,1.534,0,0,0,.95884.339H65.69035c.65751-.04452,4.44838-.11987,7.051-.26026a15.89856,15.89856,0,0,0,3.54087-.60271l3.2464-.9383,36.42592-15.2902a5.86555,5.86555,0,0,1,5.47913,10.31788Z"/><rect class="cls-2" x="3.9096" y="69.46934" width="13.13535" height="43.21556"/><path class="cls-2" d="M110.205,59.827a276.74689,276.74689,0,0,1-8.6728-47.84945,2.143,2.143,0,0,0-2.12655-1.778H53.14433a2.13607,2.13607,0,0,0-2.12268,1.778A276.76453,276.76453,0,0,1,42.345,59.827a2.03172,2.03172,0,0,0,.47643,1.778,2.14108,2.14108,0,0,0,1.65012.78246h63.61079a2.13325,2.13325,0,0,0,1.64624-.78246A2.0204,2.0204,0,0,0,110.205,59.827Zm-23.489-34.28831v3.92775a10.43912,10.43912,0,0,1-20.87824,0V25.53865a3.03294,3.03294,0,1,1,3.34677,0v3.92775a7.09044,7.09044,0,0,0,14.18087,0V25.53865a3.031,3.031,0,1,1,3.3506,0Z"/></svg>