<?xml version="1.0" encoding="UTF-8" standalone="no"?> <svg width="24" height="24" viewBox="0 0 24 24" fill="none" xmlns="http://www.w3.org/2000/svg">
<path d="M19.293 20.7081L16.586 18.0001L16 17.4141L14.655 16.0691L14.586 16.0001L12.086 13.5001H12C11.6022 13.5001 11.2207 13.342 10.9394 13.0607C10.6581 12.7794 10.5 12.3979 10.5 12.0001C10.5 11.9721 10.5 11.9441 10.5 11.9161L7.28302 8.70008L5.53202 6.94708L3.29302 4.70708C3.19751 4.61483 3.12133 4.50449 3.06892 4.38249C3.01651 4.26048 2.98892 4.12926 2.98777 3.99648C2.98662 3.8637 3.01192 3.73202 3.0622 3.60913C3.11248 3.48623 3.18673 3.37458 3.28063 3.28069C3.37452 3.18679 3.48617 3.11254 3.60907 3.06226C3.73196 3.01198 3.86364 2.98668 3.99642 2.98783C4.1292 2.98898 4.26042 3.01657 4.38243 3.06898C4.50443 3.12139 4.61477 3.19757 4.70702 3.29308L6.42002 5.00608L7.88502 6.47108L11.917 10.5001H12C12.3978 10.5001 12.7794 10.6581 13.0607 10.9394C13.342 11.2207 13.5 11.6023 13.5 12.0001C13.5 12.0281 13.5 12.0561 13.5 12.0841L17.414 16.0001L19.407 17.9931L20.707 19.2931C20.7999 19.386 20.8735 19.4963 20.9237 19.6176C20.9739 19.739 20.9998 19.8691 20.9997 20.0004C20.9997 20.1318 20.9738 20.2618 20.9235 20.3832C20.8731 20.5045 20.7994 20.6147 20.7065 20.7076C20.6136 20.8004 20.5033 20.8741 20.382 20.9243C20.2606 20.9745 20.1305 21.0003 19.9992 21.0003C19.8678 21.0002 19.7378 20.9743 19.6164 20.924C19.4951 20.8737 19.3849 20.8 19.292 20.7071L19.293 20.7081ZM2.13202 12.5001C2.04425 12.3481 1.99805 12.1756 1.99805 12.0001C1.99805 11.8245 2.04425 11.6521 2.13202 11.5001C2.91683 10.153 3.89869 8.93077 5.04502 7.87408L6.57602 9.40508L8.56202 11.3911C8.52309 11.5918 8.50233 11.7956 8.50002 12.0001C8.50002 12.9283 8.86877 13.8186 9.52515 14.475C10.1815 15.1313 11.0718 15.5001 12 15.5001C12.2048 15.4978 12.409 15.477 12.61 15.4381L13.879 16.7071L13.948 16.7771L15.293 18.1211L15.498 18.3261C14.4706 18.7389 13.3779 18.9658 12.271 18.9961C12.189 18.9961 12.106 18.9961 12.025 18.9961C6.16202 19.0001 2.76202 13.6001 2.13202 12.5001ZM18.121 15.3001L15.439 12.6101C15.5352 12.1063 15.5183 11.5875 15.3894 11.0911C15.2605 10.5947 15.0229 10.1332 14.6938 9.73985C14.3647 9.34652 13.9523 9.03126 13.4864 8.81684C13.0205 8.60243 12.5128 8.49424 12 8.50008C11.7953 8.50263 11.5913 8.52271 11.39 8.56008L8.59002 5.76008L8.50002 5.67508C9.52827 5.26074 10.6219 5.03219 11.73 5.00008C17.706 4.81308 21.23 10.3871 21.868 11.5001C21.9558 11.6521 22.002 11.8245 22.002 12.0001C22.002 12.1756 21.9558 12.3481 21.868 12.5001C21.0841 13.8487 20.1025 15.0723 18.956 16.1301L18.121 15.3001Z" fill="black"/>
</svg>
