<?xml version="1.0" encoding="UTF-8" standalone="no"?> <svg id="Layer_1" data-name="Layer 1" xmlns="http://www.w3.org/2000/svg" viewBox="0 0 128 128"><defs><style>.cls-1{fill:#2d3e50;}.cls-2{fill:#1d75b8;}</style></defs><title>v</title><path class="cls-1" d="M125.088,63.50318l-.79374-.89873a81.072,81.072,0,0,0-103.03269-14.682A81.32084,81.32084,0,0,0,3.6897,62.6316l-.73944.83854A6.23766,6.23766,0,0,0,2.934,71.85331l.78017.87429A81.47074,81.47074,0,0,0,21.25974,87.42768a3.7072,3.7072,0,1,0,3.9135-6.29745A74.05513,74.05513,0,0,1,9.235,67.77916l-.10046-.11268.086-.09684A73.92274,73.92274,0,0,1,25.17324,54.22037,73.65946,73.65946,0,0,1,118.75976,67.538l.114.12852-.09141.10227a75.15449,75.15449,0,0,1-5.48017,5.48017,73.46381,73.46381,0,0,1-10.47071,7.86864,3.707,3.707,0,0,0,3.90264,6.30378,80.90992,80.90992,0,0,0,11.53506-8.66782,82.48721,82.48721,0,0,0,6.03588-6.03815l.76478-.85664A6.26251,6.26251,0,0,0,125.088,63.50318Z"/><path class="cls-2" d="M78.50979,71.50758A12.50668,12.50668,0,0,1,65.99816,58.99595a12.35073,12.35073,0,0,1,1.29752-5.54217,19.22026,19.22026,0,0,0-3.29014-.2873A19.50425,19.50425,0,1,0,83.50519,72.66606a18.19881,18.19881,0,0,0-.12049-2.14088A12.5099,12.5099,0,0,1,78.50979,71.50758Z"/></svg>