<svg width="16" height="18" viewBox="0 0 16 18" fill="none" xmlns="http://www.w3.org/2000/svg">
<path fill-rule="evenodd" clip-rule="evenodd" d="M14.9059 3.36898C15.2301 3.36898 15.4999 3.63814 15.4999 3.98064V4.2973C15.4999 4.63146 15.2301 4.90896 14.9059 4.90896H1.09482C0.769822 4.90896 0.499939 4.63146 0.499939 4.2973V3.98064C0.499939 3.63814 0.769822 3.36898 1.09482 3.36898H3.52458C4.01815 3.36898 4.44769 3.01815 4.55872 2.52315L4.68597 1.95482C4.88372 1.18067 5.53452 0.666504 6.27933 0.666504H9.72055C10.4573 0.666504 11.1153 1.18067 11.3058 1.91399L11.442 2.52232C11.5522 3.01815 11.9817 3.36898 12.4761 3.36898H14.9059ZM13.6715 14.9449C13.9251 12.5807 14.3693 6.96411 14.3693 6.90744C14.3855 6.73578 14.3296 6.57328 14.2185 6.44245C14.0994 6.31995 13.9486 6.24745 13.7825 6.24745H2.22371C2.05675 6.24745 1.8979 6.31995 1.78768 6.44245C1.67584 6.57328 1.62072 6.73578 1.62883 6.90744C1.63032 6.91785 1.64625 7.11569 1.6729 7.44645C1.79126 8.91581 2.12091 13.0083 2.33393 14.9449C2.48468 16.3715 3.42076 17.2682 4.77666 17.3007C5.82296 17.3248 6.90087 17.3332 8.0031 17.3332C9.0413 17.3332 10.0957 17.3248 11.1744 17.3007C12.5773 17.2765 13.5126 16.3957 13.6715 14.9449Z" fill="#F85C77"/>
</svg>
