<svg width="16" height="16" viewBox="0 0 16 16" fill="none" xmlns="http://www.w3.org/2000/svg">
<path fill-rule="evenodd" clip-rule="evenodd" d="M5.81362 14.6899L13.1356 5.2212C13.5336 4.71059 13.6751 4.12025 13.5424 3.51916C13.4274 2.97271 13.0914 2.45314 12.5874 2.05899L11.3582 1.08255C10.2882 0.231533 8.96173 0.321114 8.20123 1.29755L7.37883 2.36446C7.27272 2.49793 7.29924 2.69501 7.43189 2.80251C7.43189 2.80251 9.51 4.46872 9.55421 4.50455C9.6957 4.63892 9.80182 4.81808 9.82834 5.03308C9.87256 5.45411 9.58074 5.84827 9.14743 5.90201C8.94404 5.92889 8.7495 5.86618 8.60801 5.74973L6.42379 4.01185C6.31767 3.93213 6.1585 3.94915 6.07007 4.05664L0.879222 10.7752C0.543188 11.1963 0.428229 11.7427 0.543188 12.2712L1.20641 15.1468C1.24179 15.2991 1.37443 15.4066 1.5336 15.4066L4.4518 15.3707C4.98238 15.3618 5.47758 15.1199 5.81362 14.6899ZM9.89971 13.7944H14.6581C15.1224 13.7944 15.5 14.1769 15.5 14.6472C15.5 15.1184 15.1224 15.5 14.6581 15.5H9.89971C9.43545 15.5 9.05785 15.1184 9.05785 14.6472C9.05785 14.1769 9.43545 13.7944 9.89971 13.7944Z" fill="#13D5FE"/>
</svg>
