<?xml version="1.0" encoding="UTF-8" standalone="no"?> <svg xmlns="http://www.w3.org/2000/svg" viewBox="0 0 64 64"><defs><style>.cls-1{fill:#cfd8dc;stroke:#cfd8dc;}.cls-1,.cls-2,.cls-3,.cls-6,.cls-7{stroke-linecap:round;stroke-linejoin:round;stroke-width:2px;}.cls-2{fill:#5b3b63;stroke:#5b3b63;opacity:0.1;}.cls-3,.cls-4{fill:#4f4f4f;}.cls-3{stroke:#4f4f4f;}.cls-5{fill:#a57d71;stroke:#a57d71;stroke-miterlimit:10;}.cls-6{fill:#45d821;stroke:#45d821;}.cls-7{fill:none;stroke:#fff;}.cls-8{fill:#ff4931;}</style></defs><title>finish</title><g id="finish"><circle class="cls-1" cx="39" cy="39" r="22.77" transform="translate(-0.39 0.39) rotate(-0.57)"/><path class="cls-2" d="M50,19.07A22.77,22.77,0,0,1,21,52.93,22.77,22.77,0,1,0,50,19.07Z"/><path class="cls-3" d="M41.87,47.19c-1.44-1.78-4-4-7-3.94s-5.45,2.25-6.86,4Z"/><circle class="cls-4" cx="26.96" cy="35.13" r="2" transform="translate(-0.35 0.27) rotate(-0.57)"/><circle class="cls-4" cx="41.96" cy="34.98" r="2" transform="translate(-0.35 0.42) rotate(-0.57)"/><rect class="cls-5" x="52.5" y="20.5" width="4" height="42"/><rect class="cls-5" x="7.5" y="20.5" width="4" height="42"/><rect class="cls-6" x="2" y="3" width="60" height="17"/><polyline class="cls-7" points="44 6 38 6 38 12 45 12 45 17 38 17"/><polyline class="cls-7" points="23 17 23 6 30 13 30 6 30 17"/><path class="cls-8" d="M35,46h5a0,0,0,0,1,0,0v4.5A2.5,2.5,0,0,1,37.5,53h0A2.5,2.5,0,0,1,35,50.5V46A0,0,0,0,1,35,46Z"/><line class="cls-7" x1="19" y1="6" x2="19" y2="17"/><line class="cls-7" x1="34" y1="6" x2="34" y2="17"/><polyline class="cls-7" points="8 17 8 6 15 6"/><line class="cls-7" x1="15" y1="12" x2="8" y2="12"/><line class="cls-7" x1="49" y1="17" x2="49" y2="6"/><line class="cls-7" x1="56" y1="17" x2="56" y2="6"/><line class="cls-7" x1="56" y1="12" x2="49" y2="12"/></g></svg>