<svg width="10" height="10" viewBox="0 0 10 10" fill="none" xmlns="http://www.w3.org/2000/svg">
<path fill-rule="evenodd" clip-rule="evenodd" d="M10 5C10 7.7595 7.76 10 5 10C2.235 10 1.95871e-07 7.7595 4.37114e-07 5C6.78444e-07 2.2395 2.235 -6.78838e-07 5 -4.37114e-07C7.76 -1.95827e-07 10 2.2395 10 5ZM5.44001 6.89508C5.44001 7.13458 5.24001 7.33508 5.00001 7.33508C4.76001 7.33508 4.56501 7.13458 4.56501 6.89508L4.56501 4.68508C4.56501 4.44458 4.76001 4.25008 5.00001 4.25008C5.24001 4.25008 5.44001 4.44458 5.44001 4.68508L5.44001 6.89508ZM4.995 2.65955C5.24 2.65955 5.435 2.85955 5.435 3.09955C5.435 3.33955 5.24 3.53455 5 3.53455C4.755 3.53455 4.56 3.33955 4.56 3.09955C4.56 2.85955 4.755 2.65955 4.995 2.65955Z" fill="#D3D3D3"/>
</svg>
