<svg width="28" height="26" viewBox="0 0 28 26" fill="none" xmlns="http://www.w3.org/2000/svg">
<path d="M26.1273 0.52002L15.6313 8.32802L17.5833 3.72002L26.1273 0.52002Z" fill="#E17726" stroke="#E17726" stroke-width="0.32" stroke-linecap="round" stroke-linejoin="round"/>
<path d="M1.87207 0.52002L12.3041 8.39202L10.4481 3.72002L1.87207 0.52002Z" fill="#E27625" stroke="#E27625" stroke-width="0.32" stroke-linecap="round" stroke-linejoin="round"/>
<path d="M22.3512 18.6001L19.5352 22.8881L25.5512 24.5521L27.2472 18.6961L22.3512 18.6001Z" fill="#E27625" stroke="#E27625" stroke-width="0.32" stroke-linecap="round" stroke-linejoin="round"/>
<path d="M0.783691 18.6961L2.47969 24.5521L8.46369 22.8881L5.67969 18.6001L0.783691 18.6961Z" fill="#E27625" stroke="#E27625" stroke-width="0.32" stroke-linecap="round" stroke-linejoin="round"/>
<path d="M8.14398 11.368L6.47998 13.896L12.4 14.152L12.208 7.75195L8.14398 11.368Z" fill="#E27625" stroke="#E27625" stroke-width="0.32" stroke-linecap="round" stroke-linejoin="round"/>
<path d="M19.8883 11.368L15.7603 7.68799L15.6323 14.152L21.5523 13.896L19.8883 11.368Z" fill="#E27625" stroke="#E27625" stroke-width="0.32" stroke-linecap="round" stroke-linejoin="round"/>
<path d="M8.46338 22.888L12.0474 21.16L8.94338 18.728L8.46338 22.888Z" fill="#E27625" stroke="#E27625" stroke-width="0.32" stroke-linecap="round" stroke-linejoin="round"/>
<path d="M15.9839 21.16L19.5359 22.888L19.0559 18.728L15.9839 21.16Z" fill="#E27625" stroke="#E27625" stroke-width="0.32" stroke-linecap="round" stroke-linejoin="round"/>
<path d="M19.5359 22.8882L15.9839 21.1602L16.2719 23.4642L16.2399 24.4562L19.5359 22.8882Z" fill="#D5BFB2" stroke="#D5BFB2" stroke-width="0.32" stroke-linecap="round" stroke-linejoin="round"/>
<path d="M8.46338 22.8882L11.7914 24.4562L11.7594 23.4642L12.0474 21.1602L8.46338 22.8882Z" fill="#D5BFB2" stroke="#D5BFB2" stroke-width="0.32" stroke-linecap="round" stroke-linejoin="round"/>
<path d="M11.8554 17.1922L8.87939 16.3282L10.9594 15.3682L11.8554 17.1922Z" fill="#233447" stroke="#233447" stroke-width="0.32" stroke-linecap="round" stroke-linejoin="round"/>
<path d="M16.1753 17.1922L17.0393 15.3682L19.1513 16.3282L16.1753 17.1922Z" fill="#233447" stroke="#233447" stroke-width="0.32" stroke-linecap="round" stroke-linejoin="round"/>
<path d="M8.46369 22.8881L8.97569 18.6001L5.67969 18.6961L8.46369 22.8881Z" fill="#CC6228" stroke="#CC6228" stroke-width="0.32" stroke-linecap="round" stroke-linejoin="round"/>
<path d="M19.0562 18.6001L19.5362 22.8881L22.3522 18.6961L19.0562 18.6001Z" fill="#CC6228" stroke="#CC6228" stroke-width="0.32" stroke-linecap="round" stroke-linejoin="round"/>
<path d="M21.5513 13.896L15.6313 14.152L16.1753 17.192L17.0393 15.368L19.1513 16.328L21.5513 13.896Z" fill="#CC6228" stroke="#CC6228" stroke-width="0.32" stroke-linecap="round" stroke-linejoin="round"/>
<path d="M8.87949 16.328L10.9595 15.368L11.8555 17.192L12.3995 14.152L6.47949 13.896L8.87949 16.328Z" fill="#CC6228" stroke="#CC6228" stroke-width="0.32" stroke-linecap="round" stroke-linejoin="round"/>
<path d="M6.479 13.896L8.943 18.728L8.879 16.328L6.479 13.896Z" fill="#E27525" stroke="#E27525" stroke-width="0.32" stroke-linecap="round" stroke-linejoin="round"/>
<path d="M19.1512 16.328L19.0552 18.728L21.5512 13.896L19.1512 16.328Z" fill="#E27525" stroke="#E27525" stroke-width="0.32" stroke-linecap="round" stroke-linejoin="round"/>
<path d="M12.4 14.1519L11.856 17.1919L12.528 20.8079L12.688 16.0399L12.4 14.1519Z" fill="#E27525" stroke="#E27525" stroke-width="0.32" stroke-linecap="round" stroke-linejoin="round"/>
<path d="M15.6322 14.1519L15.3442 16.0399L15.4722 20.8079L16.1762 17.1919L15.6322 14.1519Z" fill="#E27525" stroke="#E27525" stroke-width="0.32" stroke-linecap="round" stroke-linejoin="round"/>
<path d="M16.1752 17.1921L15.4712 20.8081L15.9832 21.1601L19.0552 18.7281L19.1512 16.3281L16.1752 17.1921Z" fill="#F5841F" stroke="#F5841F" stroke-width="0.32" stroke-linecap="round" stroke-linejoin="round"/>
<path d="M8.87939 16.3281L8.94339 18.7281L12.0474 21.1601L12.5274 20.8081L11.8554 17.1921L8.87939 16.3281Z" fill="#F5841F" stroke="#F5841F" stroke-width="0.32" stroke-linecap="round" stroke-linejoin="round"/>
<path d="M16.2394 24.4562L16.2714 23.4642L15.9834 23.2402H12.0154L11.7594 23.4642L11.7914 24.4562L8.46338 22.8882L9.61538 23.8482L11.9834 25.4802H16.0154L18.3834 23.8482L19.5354 22.8882L16.2394 24.4562Z" fill="#C0AC9D" stroke="#C0AC9D" stroke-width="0.32" stroke-linecap="round" stroke-linejoin="round"/>
<path d="M15.9838 21.1601L15.4718 20.8081H12.5278L12.0478 21.1601L11.7598 23.4641L12.0158 23.2401H15.9838L16.2718 23.4641L15.9838 21.1601Z" fill="#161616" stroke="#161616" stroke-width="0.32" stroke-linecap="round" stroke-linejoin="round"/>
<path d="M26.5759 8.84002L27.4719 4.52002L26.1279 0.52002L15.9839 8.07202L19.8879 11.368L25.3919 12.968L26.6079 11.56L26.0959 11.176L26.9279 10.408L26.2879 9.89602L27.1199 9.25602L26.5759 8.84002Z" fill="#763E1A" stroke="#763E1A" stroke-width="0.32" stroke-linecap="round" stroke-linejoin="round"/>
<path d="M0.560059 4.52002L1.45606 8.84002L0.880059 9.25602L1.71206 9.89602L1.07206 10.408L1.93606 11.176L1.39206 11.56L2.60806 12.968L8.14406 11.368L12.0481 8.07202L1.87206 0.52002L0.560059 4.52002Z" fill="#763E1A" stroke="#763E1A" stroke-width="0.32" stroke-linecap="round" stroke-linejoin="round"/>
<path d="M25.3912 12.9682L19.8872 11.3682L21.5512 13.8962L19.0552 18.7282L22.3512 18.6962H27.2472L25.3912 12.9682Z" fill="#F5841F" stroke="#F5841F" stroke-width="0.32" stroke-linecap="round" stroke-linejoin="round"/>
<path d="M8.14369 11.3682L2.60769 12.9682L0.783691 18.6962H5.67969L8.94369 18.7282L6.47969 13.8962L8.14369 11.3682Z" fill="#F5841F" stroke="#F5841F" stroke-width="0.32" stroke-linecap="round" stroke-linejoin="round"/>
<path d="M15.6318 14.1522L15.9838 8.07222L17.5838 3.72021H10.4478L12.0478 8.07222L12.3998 14.1522L12.5278 16.0722V20.8082H15.4718V16.0722L15.6318 14.1522Z" fill="#F5841F" stroke="#F5841F" stroke-width="0.32" stroke-linecap="round" stroke-linejoin="round"/>
</svg>
