<?xml version="1.0" encoding="utf-8"?>
<!-- Generator: Adobe Illustrator 23.0.3, SVG Export Plug-In . SVG Version: 6.00 Build 0)  -->
<svg version="1.1" id="Layer_1" xmlns="http://www.w3.org/2000/svg" xmlns:xlink="http://www.w3.org/1999/xlink" x="0px" y="0px"
	 viewBox="0 0 512 512" style="enable-background:new 0 0 512 512;" xml:space="preserve">
<style type="text/css">
	.st0{fill:#607D8B;}
	.st1{fill:#ECEFF1;}
	.st2{fill:#FAFAFA;}
</style>
<path class="st0" d="M256,0C114.8,0,0,114.8,0,256s114.8,256,256,256s256-114.8,256-256S397.2,0,256,0z"/>
<path class="st1" d="M277.3,384c0,11.8-9.6,21.3-21.3,21.3s-21.3-9.6-21.3-21.3s9.6-21.3,21.3-21.3S277.3,372.2,277.3,384z"/>
<path class="st2" d="M289.8,269.7c-7.6,3.5-12.4,11.1-12.4,19.4v9.6c0,11.8-9.5,21.3-21.3,21.3s-21.3-9.6-21.3-21.3v-9.6
	c0-24.9,14.6-47.7,37.2-58.2c21.7-10,37.4-36.6,37.4-49.6c0-29.4-23.9-53.3-53.3-53.3s-53.3,23.9-53.3,53.3
	c0,11.8-9.5,21.3-21.3,21.3s-21.3-9.6-21.3-21.3c0-52.9,43.1-96,96-96s96,43.1,96,96C352,210.2,327,252.5,289.8,269.7z"/>
</svg>
