<?xml version="1.0" encoding="UTF-8" standalone="no"?> <svg id="Layer_1" data-name="Layer 1" xmlns="http://www.w3.org/2000/svg" viewBox="0 0 128 128"><defs><style>.cls-1{fill:#2e79bd;}.cls-2{fill:#2d3e50;}</style></defs><title>b</title><path class="cls-1" d="M52.08156,44.962a6.0786,6.0786,0,0,0-2.33773,0,6.07482,6.07482,0,1,0,2.33773,0Z"/><path class="cls-1" d="M72.90755,47.08589l-2.50348.32076a19.85741,19.85741,0,0,0-15.97657-15.975l.32083-2.50335a3.86742,3.86742,0,1,0-7.6721,0l.3207,2.50335a19.86159,19.86159,0,0,0-15.97506,15.975l-2.50335-.32076a3.82265,3.82265,0,0,0-.49848-.03145,3.86762,3.86762,0,1,0,.49848,7.70369l2.50335-.32083A19.85766,19.85766,0,0,0,47.39693,70.41386l-.3207,2.50342a3.79963,3.79963,0,0,0-.03145.49848,3.86746,3.86746,0,1,0,7.70355-.49848l-.32083-2.50342A19.85709,19.85709,0,0,0,70.40407,54.43729l2.50348.32083a3.86748,3.86748,0,1,0,0-7.67224Zm-7.03536,6.76957a15.261,15.261,0,1,1,.28459-2.9327A15.28336,15.28336,0,0,1,65.87219,53.85546Z"/><path class="cls-2" d="M122.21194,107.59032,97.49465,80.86365,93.54249,84.8197,89.06573,80.343c.34326-.44433.68625-.88879,1.01173-1.34214A48.118,48.118,0,1,0,78.27761,90.59839q1.02322-.70587,2.011-1.4709l4.46965,4.46965L80.32036,98.035l27.27,24.19919a10.3469,10.3469,0,1,0,14.62157-14.64386ZM74.51281,74.52268a33.41089,33.41089,0,1,1,9.76066-23.59985A33.41383,33.41383,0,0,1,74.51281,74.52268Z"/></svg>