<svg width="80" height="80" viewBox="0 0 80 80" fill="none" xmlns="http://www.w3.org/2000/svg">
<path d="M47.9921 32.0078L32.0088 47.9911" stroke="white" stroke-width="4" stroke-linecap="round" stroke-linejoin="round"/>
<path d="M47.9967 48L39.9983 40L32 32" stroke="white" stroke-width="4" stroke-linecap="round" stroke-linejoin="round"/>
<circle cx="40" cy="40" r="29" fill="#F2C94C"/>
<circle opacity="0.2" cx="40" cy="40" r="40" fill="#F2C94C"/>
<path fill-rule="evenodd" clip-rule="evenodd" d="M44.1441 26.4366L54.9606 45.3672C54.9958 45.4289 55.027 45.4927 55.054 45.5584C55.2586 46.0558 55.3709 46.5783 55.4 47.0977L55.4005 47.1053C55.5351 49.7225 53.5225 51.9498 50.9084 52.0865C50.8796 52.088 50.8509 52.0888 50.8221 52.0888H29.2863C29.2685 52.0888 29.2509 52.0885 29.2333 52.088C29.1844 52.0895 29.1351 52.089 29.0853 52.0862C28.5641 52.057 28.0476 51.9443 27.5556 51.7462L27.5496 51.7437C25.1259 50.7564 23.9576 47.9923 24.943 45.5652C24.9707 45.4972 25.0028 45.431 25.0393 45.3672L35.8555 26.437C36.2863 25.6625 36.9269 25.0225 37.7054 24.594C39.9943 23.3271 42.8734 24.1537 44.1441 26.4366ZM29.2402 48.7875C29.2555 48.7871 29.2709 48.7869 29.2863 48.7869H50.771C51.5497 48.7275 52.1413 48.0594 52.1031 47.2786C52.0951 47.1412 52.0696 47.0116 52.03 46.8939L41.2722 28.0659L41.261 28.0461C40.8755 27.3492 39.9995 27.0976 39.3035 27.4834L39.2985 27.4861L39.2985 27.4861C39.0647 27.6146 38.87 27.8086 38.7392 28.0454L38.7276 28.0659L27.9712 46.8916C27.7308 47.6067 28.0845 48.3945 28.7922 48.6846C28.9329 48.7409 29.0833 48.7758 29.2402 48.7875ZM38.1212 44.5015C38.1212 43.4688 38.9628 42.6156 39.9996 42.6156C41.0365 42.6156 41.8781 43.4413 41.8781 44.4741V44.5015C41.8781 45.5343 41.0365 46.3724 39.9996 46.3724C38.9628 46.3724 38.1212 45.5343 38.1212 44.5015ZM41.6356 35.386C41.6356 34.4742 40.8964 33.735 39.9846 33.735C39.0728 33.735 38.3337 34.4742 38.3337 35.386V39.9959C38.3337 40.9077 39.0728 41.6469 39.9846 41.6469C40.8964 41.6469 41.6356 40.9077 41.6356 39.9959V35.386Z" fill="white"/>
</svg>
