<?xml version="1.0" encoding="UTF-8" standalone="no"?> <svg width="64" height="64" viewBox="0 0 64 64" fill="none" xmlns="http://www.w3.org/2000/svg">
<path d="M60 2.5H4C3.60218 2.5 3.22064 2.65804 2.93934 2.93934C2.65804 3.22064 2.5 3.60218 2.5 4V20.14C2.5 20.5378 2.65804 20.9194 2.93934 21.2007C3.22064 21.482 3.60218 21.64 4 21.64H60C60.3978 21.64 60.7794 21.482 61.0607 21.2007C61.342 20.9194 61.5 20.5378 61.5 20.14V4C61.5 3.60218 61.342 3.22064 61.0607 2.93934C60.7794 2.65804 60.3978 2.5 60 2.5Z" fill="#ACB3BA"/>
<path d="M50.64 12.0698V56.0698C50.6373 57.5277 50.057 58.9251 49.0262 59.956C47.9953 60.9869 46.5979 61.5672 45.14 61.5698H18.86C17.4021 61.5672 16.0047 60.9869 14.9738 59.956C13.9429 58.9251 13.3626 57.5277 13.36 56.0698V12.0698C13.36 11.672 13.518 11.2905 13.7993 11.0092C14.0806 10.7279 14.4622 10.5698 14.86 10.5698H49.14C49.5378 10.5698 49.9193 10.7279 50.2006 11.0092C50.482 11.2905 50.64 11.672 50.64 12.0698Z" fill="#97CCEF"/>
<path d="M42.81 12.0698V61.5698H35.64V12.0698C35.64 11.672 35.798 11.2905 36.0794 11.0092C36.3607 10.7279 36.7422 10.5698 37.14 10.5698H41.31C41.7078 10.5698 42.0894 10.7279 42.3707 11.0092C42.652 11.2905 42.81 11.672 42.81 12.0698Z" fill="#0099D6"/>
<path d="M22.5699 47.3101C22.1721 47.3101 21.7906 47.4681 21.5093 47.7494C21.228 48.0307 21.0699 48.4122 21.0699 48.8101V53.2101C21.0699 53.6079 21.228 53.9894 21.5093 54.2707C21.7906 54.552 22.1721 54.7101 22.5699 54.7101C22.9678 54.7101 23.3493 54.552 23.6306 54.2707C23.9119 53.9894 24.0699 53.6079 24.0699 53.2101V48.8101C24.0699 48.4122 23.9119 48.0307 23.6306 47.7494C23.3493 47.4681 22.9678 47.3101 22.5699 47.3101Z" fill="#0099D6"/>
<path d="M53.48 13.5698H10.48C10.0822 13.5698 9.70063 13.4118 9.41932 13.1305C9.13802 12.8492 8.97998 12.4676 8.97998 12.0698C8.97998 11.672 9.13802 11.2905 9.41932 11.0092C9.70063 10.7279 10.0822 10.5698 10.48 10.5698H53.48C53.8778 10.5698 54.2593 10.7279 54.5406 11.0092C54.8219 11.2905 54.98 11.672 54.98 12.0698C54.98 12.4676 54.8219 12.8492 54.5406 13.1305C54.2593 13.4118 53.8778 13.5698 53.48 13.5698V13.5698Z" fill="#275996"/>
</svg>
